:SAMPLES-PER-SECOND 30
:FULLY-SPECIFIED
:DEGREES
332
root  -2.80495 40.9903 0.55314 -126.728 -89.3561 130.744
RightUpLeg  0.62023 -1.31768 -2.34925
RightLeg  -4.28184 -19.0422 1.43139
RightFoot  1.07975 -0.352096 3.26263
RightToes  -3.11842e-008 1.75238e-005 3.56266e-009
Spine  9.45995 -0.246562 0.536695
Spine1  -21.6401 -0.240622 -2.7996
HEad  -13.6446 -1.21282 -2.73771
LeftShoulder1  3.34242 -7.31824 -24.709
LeftArm  -7.06253 -29.3718 -37.373
LeftForeArm  105.144 -65.6334 -151.745
LeftHand  -0.0841704 3.0967 3.48127
RightShoulder  3.03141 7.11191 22.3307
RightArm  11.0256 18.994 37.8829
RightForeArm  111.883 46.6517 165.908
RightHand  -0.637217 4.88289 -7.48194
LeftUpLeg  -0.098051 0.091567 1.45862
LeftLeg  -5.08387 16.0879 -1.89701
LeftFoot  1.8305 0.206553 -1.88517
LeftToes  4.7713e-008 1.46693e-008 1.32589e-009
333
root  -2.84795 41.0011 0.480416 -45.0648 -89.3443 49.6233
RightUpLeg  0.480885 -1.26361 -2.24482
RightLeg  -4.87836 -20.0568 1.76106
RightFoot  1.22312 -0.34317 3.19311
RightToes  -3.11842e-008 1.75238e-005 3.56266e-009
Spine  10.0095 -0.2013 -0.524436
Spine1  -23.2434 -0.29065 -1.8561
HEad  -14.8362 -1.02231 -3.15611
LeftShoulder1  3.17911 -6.92472 -24.2998
LeftArm  -7.31805 -34.2286 -37.5508
LeftForeArm  104.523 -65.4204 -151.969
LeftHand  -0.0322846 2.54948 0.767937
RightShoulder  2.99253 7.18258 21.7373
RightArm  15.3704 17.0553 35.2994
RightForeArm  113.66 46.4894 166.046
RightHand  -0.69628 4.96828 -8.08795
LeftUpLeg  -0.484409 -0.00789129 1.55039
LeftLeg  -5.62723 15.2969 -1.95948
LeftFoot  2.26088 0.216771 -1.93299
LeftToes  4.7713e-008 1.46693e-008 1.32589e-009
334
root  -2.91046 40.9997 0.41972 -5.7066 -88.3795 10.8145
RightUpLeg  0.376786 -1.2138 -2.06498
RightLeg  -5.4542 -21.208 2.19936
RightFoot  1.2894 -0.32041 2.97272
RightToes  -3.11842e-008 1.75238e-005 3.56266e-009
Spine  10.2251 -0.0754598 -0.675033
Spine1  -24.5078 -0.171744 -2.63026
HEad  -15.2071 -1.52255 -2.92518
LeftShoulder1  3.14592 -7.19061 -23.1546
LeftArm  -6.4865 -38.2986 -38.6212
LeftForeArm  105.239 -64.9554 -152.588
LeftHand  -0.0656027 2.58998 2.23388
RightShoulder  3.08632 7.20027 22.6186
RightArm  19.8412 13.0568 31.1265
RightForeArm  114.932 46.5059 166.089
RightHand  -0.691903 5.02782 -7.99392
LeftUpLeg  -1.0796 -0.0959809 1.71644
LeftLeg  -5.71532 14.304 -1.79266
LeftFoot  2.42164 0.224095 -1.97856
LeftToes  4.7713e-008 1.46693e-008 1.32589e-009
335
root  -2.95676 40.999 0.362182 -3.78687 -87.4137 9.37506
RightUpLeg  0.109916 -1.19355 -2.00065
RightLeg  -5.62017 -22.1719 2.40017
RightFoot  1.24354 -0.316797 2.95123
RightToes  -3.11842e-008 1.75238e-005 3.56266e-009
Spine  10.4993 -0.180419 -1.95222
Spine1  -25.4274 -0.297886 -1.29929
HEad  -15.7535 -1.29085 -3.27196
LeftShoulder1  2.9514 -6.54366 -23.1135
LeftArm  -5.60887 -40.818 -39.4204
LeftForeArm  111.246 -63.9677 -154.192
LeftHand  -0.1139 2.21034 3.78162
RightShoulder  3.17693 7.48147 22.7106
RightArm  25.057 9.36353 28.3779
RightForeArm  115.62 47.6579 165.621
RightHand  -0.747345 5.07507 -8.5788
LeftUpLeg  -1.56433 -0.205184 1.76954
LeftLeg  -5.90104 13.454 -1.7232
LeftFoot  2.64216 0.242445 -2.108
LeftToes  4.7713e-008 1.46693e-008 1.32589e-009
336
root  -3.02508 40.9983 0.309873 -1.34882 -86.3782 7.17352
RightUpLeg  0.164037 -1.26114 -1.94311
RightLeg  -5.80935 -23.1326 2.66399
RightFoot  1.13163 -0.311933 2.89719
RightToes  -3.11842e-008 1.75238e-005 3.56266e-009
Spine  10.6119 0.119604 -3.39364
Spine1  -25.9382 -0.0241143 0.0810522
HEad  -16.0477 -2.25612 -3.71162
LeftShoulder1  3.09513 -6.80719 -23.796
LeftArm  -3.88709 -41.7542 -40.0718
LeftForeArm  122.959 -63.1236 -156.004
LeftHand  -0.272906 0.530797 6.37056
RightShoulder  3.14907 7.37608 22.7369
RightArm  29.5873 4.75714 25.8755
RightForeArm  117.899 49.2392 165.001
RightHand  -0.726225 5.49976 -8.03665
LeftUpLeg  -1.87222 -0.28746 1.82438
LeftLeg  -5.84424 12.4735 -1.55546
LeftFoot  2.69725 0.260066 -2.24528
LeftToes  4.7713e-008 1.46693e-008 1.32589e-009
337
root  -3.07895 40.9966 0.271779 -0.903198 -85.6503 6.9704
RightUpLeg  0.150228 -1.32462 -1.93883
RightLeg  -6.00413 -23.7887 2.86782
RightFoot  1.0763 -0.302903 2.77681
RightToes  -3.11842e-008 1.75238e-005 3.56266e-009
Spine  10.4644 -0.0941042 -3.64696
Spine1  -26.1218 -0.237199 -0.044083
HEad  -16.4212 -1.08234 -3.3989
LeftShoulder1  2.97534 -6.48662 -23.549
LeftArm  -1.78456 -40.7589 -40.547
LeftForeArm  135.866 -61.5114 -158.58
LeftHand  -0.533836 -0.71648 10.3499
RightShoulder  3.2792 7.49609 23.6532
RightArm  32.9409 1.62838 24.022
RightForeArm  119.826 51.2873 164.097
RightHand  -0.736108 5.40795 -8.20796
LeftUpLeg  -2.08307 -0.368711 1.81351
LeftLeg  -5.97699 11.909 -1.51128
LeftFoot  2.81922 0.261969 -2.25213
LeftToes  4.7713e-008 1.46693e-008 1.32589e-009
338
root  -3.14065 40.9904 0.246495 0.26239 -84.987 6.03784
RightUpLeg  0.149787 -1.34521 -1.88463
RightLeg  -6.18461 -24.3827 3.07056
RightFoot  0.98964 -0.299328 2.73851
RightToes  -3.11842e-008 1.75238e-005 3.56266e-009
Spine  10.4113 -0.157759 -4.44621
Spine1  -26.5004 -0.285596 0.824072
HEad  -16.2679 -1.70884 -3.32871
LeftShoulder1  3.05194 -6.55483 -24.1318
LeftArm  1.2101 -37.524 -40.7833
LeftForeArm  143.733 -59.4073 -160.877
LeftHand  -0.657643 -0.619415 12.814
RightShoulder  3.41274 7.76138 24.1658
RightArm  34.2323 -0.608015 22.4254
RightForeArm  120.532 53.1063 163.17
RightHand  -0.702695 5.59105 -7.72875
LeftUpLeg  -2.38567 -0.368938 1.88182
LeftLeg  -5.84858 11.2936 -1.44241
LeftFoot  2.81079 0.252557 -2.12974
LeftToes  4.7713e-008 1.46693e-008 1.32589e-009
339
root  -3.19365 40.9858 0.232807 0.929199 -84.5095 5.52112
RightUpLeg  0.225952 -1.32727 -1.82906
RightLeg  -6.41874 -24.8637 3.22285
RightFoot  0.968425 -0.299896 2.76107
RightToes  -3.11842e-008 1.75238e-005 3.56266e-009
Spine  9.80384 -0.246464 -5.00422
Spine1  -26.0298 -0.344908 1.38172
HEad  -16.0169 -1.44259 -3.30319
LeftShoulder1  3.26462 -6.87886 -25.2911
LeftArm  5.03605 -32.9058 -39.6392
LeftForeArm  144.774 -56.9678 -162.583
LeftHand  -0.730101 -1.42403 12.7441
RightShoulder  3.41409 7.5979 24.6471
RightArm  33.3149 -1.13921 21.5576
RightForeArm  119.649 54.4418 162.356
RightHand  -0.726914 5.56462 -8.00087
LeftUpLeg  -2.54211 -0.361213 1.932
LeftLeg  -5.81645 10.802 -1.40774
LeftFoot  2.76215 0.251818 -2.16933
LeftToes  4.7713e-008 1.46693e-008 1.32589e-009
340
root  -3.2449 40.9851 0.245481 1.09155 -84.5333 5.63483
RightUpLeg  0.0436331 -1.25442 -1.82126
RightLeg  -6.50939 -24.9186 3.21067
RightFoot  0.988296 -0.30143 2.79433
RightToes  -3.11842e-008 1.75238e-005 3.56266e-009
Spine  9.18828 -0.232848 -5.77251
Spine1  -25.7159 -0.287682 2.48563
HEad  -15.5774 -0.959008 -3.28245
LeftShoulder1  3.39191 -6.94368 -26.3627
LeftArm  9.81051 -26.4709 -38.1208
LeftForeArm  144.679 -54.7046 -163.882
LeftHand  -0.864788 -3.78599 11.1292
RightShoulder  3.30984 7.34956 24.3741
RightArm  30.6913 -0.302859 21.8364
RightForeArm  118.133 55.212 161.801
RightHand  -0.816643 5.65418 -8.87588
LeftUpLeg  -2.71524 -0.431446 1.90092
LeftLeg  -5.90355 10.9016 -1.41058
LeftFoot  2.78569 0.244756 -2.11805
LeftToes  4.7713e-008 1.46693e-008 1.32589e-009
341
root  -3.30907 40.9855 0.272675 1.15509 -84.9581 5.64679
RightUpLeg  0.0784206 -1.25393 -1.84846
RightLeg  -6.63196 -24.4888 3.23188
RightFoot  1.03775 -0.305367 2.85971
RightToes  -3.11842e-008 1.75238e-005 3.56266e-009
Spine  8.66349 -0.24123 -5.99936
Spine1  -25.3385 -0.261012 3.09275
HEad  -15.4532 -1.38933 -3.37982
LeftShoulder1  3.50549 -6.9683 -27.3825
LeftArm  15.823 -18.709 -35.4976
LeftForeArm  144.998 -52.4012 -165.11
LeftHand  -0.719698 -2.80951 10.4394
RightShoulder  3.1227 6.92649 23.7955
RightArm  26.9257 1.84376 23.2399
RightForeArm  116.974 55.5753 161.507
RightHand  -0.922819 5.89298 -9.78845
LeftUpLeg  -2.55771 -0.409151 1.90014
LeftLeg  -6.07125 11.3021 -1.48815
LeftFoot  2.72022 0.238563 -2.06815
LeftToes  4.7713e-008 1.46693e-008 1.32589e-009
